# xmcd CD database file
#
# Track frame offsets:
#	150
#	19225
#	39787
#	64308
#	82193
#
# Disc length: 1391 seconds
#
# Revision: 2
# Processed by: cddbd v1.4b41PL1 Copyright (c) Steve Scherf et al.
# Submitted via: Feurio! 1.52 - http://www.feurio.com
#
DISCID=3a056d05
DTITLE=smells funky - what's cooking
DYEAR=1900
DGENRE=
TTITLE0=Promised land
TTITLE1=Future in time
TTITLE2=Get the Music
TTITLE3=Tears fall
TTITLE4=Get up
EXTD=
EXTT0=
EXTT1=
EXTT2=
EXTT3=
EXTT4=
PLAYORDER=
